HIERARCHY
ROOT root
{
  OFFSET 0 95.9893 0
  CHANNELS 6 Xposition Yposition Zposition Zrotation Xrotation Yrotation
  JOINT torso_1
  {
    OFFSET 0 5.22546 -1.18466
    CHANNELS 6 Xposition Yposition Zposition Zrotation Xrotation Yrotation
    JOINT torso_2
    {
      OFFSET 0 5.77894 1.10239
      CHANNELS 6 Xposition Yposition Zposition Zrotation Xrotation Yrotation
      JOINT torso_3
      {
        OFFSET -1.0557e-17 6.16289 0.118334
        CHANNELS 6 Xposition Yposition Zposition Zrotation Xrotation Yrotation
        JOINT torso_4
        {
          OFFSET -1.13649e-17 6.69386 -0.456341
          CHANNELS 6 Xposition Yposition Zposition Zrotation Xrotation Yrotation
          JOINT torso_5
          {
            OFFSET -2.02997e-17 7.82529 -1.54945
            CHANNELS 6 Xposition Yposition Zposition Zrotation Xrotation Yrotation
            JOINT torso_6
            {
              OFFSET -2.60628e-17 9.77186 -0.940923
              CHANNELS 6 Xposition Yposition Zposition Zrotation Xrotation Yrotation
              JOINT torso_7
              {
                OFFSET -2.98794e-17 10.8563 1.62248
                CHANNELS 6 Xposition Yposition Zposition Zrotation Xrotation Yrotation
                JOINT neck_1
                {
                  OFFSET -1.32927e-17 4.92478 0.736013
                  CHANNELS 6 Xposition Yposition Zposition Zrotation Xrotation Yrotation
                  JOINT neck_2
                  {
                    OFFSET -1.86396e-17 4.96043 0.433981
                    CHANNELS 6 Xposition Yposition Zposition Zrotation Xrotation Yrotation
                    JOINT head
                    {
                      OFFSET -2.06766e-17 4.97002 0.787173
                      CHANNELS 6 Xposition Yposition Zposition Zrotation Xrotation Yrotation
                      End Site
                      {
                        OFFSET 0 0.1 0
                      }
                    }
                  }
                }
                JOINT l_shoulder
                {
                  OFFSET 1.26863 -7.82717 7.75148
                  CHANNELS 6 Xposition Yposition Zposition Zrotation Xrotation Yrotation
                  JOINT l_up_arm
                  {
                    OFFSET 13.3291 3.34342 -3.36319
                    CHANNELS 6 Xposition Yposition Zposition Zrotation Xrotation Yrotation
                    JOINT l_low_arm
                    {
                      OFFSET 30.0522 0.0615366 0.141
                      CHANNELS 6 Xposition Yposition Zposition Zrotation Xrotation Yrotation
                      JOINT l_hand
                      {
                        OFFSET 24.9344 0.0510561 0.116988
                        CHANNELS 6 Xposition Yposition Zposition Zrotation Xrotation Yrotation
                        End Site
                        {
                          OFFSET 0.1 0 0
                        }
                      }
                    }
                  }
                }
                JOINT r_shoulder
                {
                  OFFSET -1.26863 -7.82715 7.75138
                  CHANNELS 6 Xposition Yposition Zposition Zrotation Xrotation Yrotation
                  JOINT r_up_arm
                  {
                    OFFSET -13.3291 3.34342 -3.36319
                    CHANNELS 6 Xposition Yposition Zposition Zrotation Xrotation Yrotation
                    JOINT r_low_arm
                    {
                      OFFSET -30.0522 0.0615366 0.141
                      CHANNELS 6 Xposition Yposition Zposition Zrotation Xrotation Yrotation
                      JOINT r_hand
                      {
                        OFFSET -24.9344 0.0510559 0.116988
                        CHANNELS 6 Xposition Yposition Zposition Zrotation Xrotation Yrotation
                        End Site
                        {
                          OFFSET -0.1 0 0
                        }
                      }
                    }
                  }
                }
              }
            }
          }
        }
      }
    }
  }
  JOINT l_up_leg
  {
    OFFSET 9.50369 -4.32711 2.09145
    CHANNELS 6 Xposition Yposition Zposition Zrotation Xrotation Yrotation
    JOINT l_low_leg
    {
      OFFSET -0.876987 -39.8926 -0.674123
      CHANNELS 6 Xposition Yposition Zposition Zrotation Xrotation Yrotation
      JOINT l_foot
      {
        OFFSET -2.39345 -41.5694 -6.22357
        CHANNELS 6 Xposition Yposition Zposition Zrotation Xrotation Yrotation
        JOINT l_toes
        {
          OFFSET 0.801613 -10.1701 12.8571
          CHANNELS 6 Xposition Yposition Zposition Zrotation Xrotation Yrotation
          End Site
          {
            OFFSET 0 0 0.1
          }
        }
      }
    }
  }
  JOINT r_up_leg
  {
    OFFSET -9.50369 -4.32711 2.09145
    CHANNELS 6 Xposition Yposition Zposition Zrotation Xrotation Yrotation
    JOINT r_low_leg
    {
      OFFSET 0.876987 -39.8926 -0.674123
      CHANNELS 6 Xposition Yposition Zposition Zrotation Xrotation Yrotation
      JOINT r_foot
      {
        OFFSET 2.39345 -41.5694 -6.22357
        CHANNELS 6 Xposition Yposition Zposition Zrotation Xrotation Yrotation
        JOINT r_toes
        {
          OFFSET -0.801613 -10.1701 12.8571
          CHANNELS 6 Xposition Yposition Zposition Zrotation Xrotation Yrotation
          End Site
          {
            OFFSET 0 0 0.1
          }
        }
      }
    }
  }
}
MOTION
Frames: 6
Frame Time: 0.016667
145.577 87.0238 1051.77 9.94904 -3.20665 80.7666 0 5.22546 -1.18466 0.989314 4.90543 3.35963 0 5.77894 1.10239 0.254163 3.89825 3.70059 -1.0557e-17 6.16289 0.118334 -0.384134 2.96582 3.68001 -1.13649e-17 6.69386 -0.456341 -0.811705 0.707148 3.6129 -2.02997e-17 7.82529 -1.54945 -0.662079 -0.0846947 3.77161 -2.60628e-17 9.77186 -0.940923 -0.00506162 -1.34054 3.47765 -2.98794e-17 10.8563 1.62248 -0.053796 1.23477 -0.455558 -1.32927e-17 4.92478 0.736013 -2.32713 -3.04587 -6.49078 -1.86396e-17 4.96043 0.433981 -2.57804 -4.71458 -3.32439 -2.06766e-17 4.97002 0.787173 0.292638 -5.08893 0.469971 1.26863 -7.82717 7.75148 12.3451 6.36055 0.207797 13.3291 3.34342 -3.36319 -80.1392 -0.403467 21.2588 30.0522 0.0615366 0.141 0.892661 -0.0289434 -4.30646 24.9344 0.0510561 0.116988 5.36614 18.4537 -2.49617 -1.26863 -7.82715 7.75138 -14.9191 0.845665 -7.02481 -13.3291 3.34342 -3.36319 56.3752 37.2406 37.1492 -30.0522 0.0615366 0.141 -11.9461 -13.3936 97.1864 -24.9344 0.0510559 0.116988 5.29601 -46.634 9.0675 9.50369 -4.32711 2.09145 -13.6495 -37.2704 -3.09791 -0.876987 -39.8926 -0.674123 -137.317 70.146 119.315 -2.39345 -41.5694 -6.22357 -11.836 13.6543 16.4256 0.801613 -10.1701 12.8571 9.14253e-16 -6.33384e-16 -2.23191e-16 -9.50369 -4.32711 2.09145 12.7042 -0.0670411 28.395 0.876987 -39.8926 -0.674123 9.71828 32.7463 -2.27082 2.39345 -41.5694 -6.22357 -15.4125 -21.5427 -17.8726 -0.801613 -10.1701 12.8571 -2.58474e-15 -3.00139e-16 -1.24926e-14 
150.713 89.2517 1055.63 13.4838 -0.585169 78.7267 0 5.22546 -1.18466 -0.245031 6.14442 3.88374 0 5.77894 1.10239 -0.890833 4.88504 4.1104 -1.0557e-17 6.16289 0.118334 -1.28179 3.77079 4.10755 -1.13649e-17 6.69386 -0.456341 -1.42543 0.962358 4.03315 -2.02997e-17 7.82529 -1.54945 -0.882781 -0.203056 4.32724 -2.60628e-17 9.77186 -0.940923 0.202998 -1.67166 3.89878 -2.98794e-17 10.8563 1.62248 0.0286049 1.28354 -0.488835 -1.32927e-17 4.92478 0.736013 -2.10269 -1.834 -6.49602 -1.86396e-17 4.96043 0.433981 -1.81211 -3.8879 -3.33665 -2.06766e-17 4.97002 0.787173 0.506595 -4.94624 0.244322 1.26863 -7.82717 7.75148 15.7919 7.44358 -0.584883 13.3291 3.34342 -3.36319 -83.7042 5.71218 24.2562 30.0522 0.0615366 0.141 0.878441 -0.0279491 -4.23774 24.9344 0.0510561 0.116988 2.95364 9.39122 -1.61816 -1.26863 -7.82715 7.75138 -16.5849 0.793073 -6.80048 -13.3291 3.34342 -3.36319 55.7216 35.549 41.6918 -30.0522 0.0615366 0.141 -11.8981 -13.7373 98.8696 -24.9344 0.0510559 0.116988 5.54517 -44.6827 9.25646 9.50369 -4.32711 2.09145 -10.9945 -41.9717 0.256071 -0.876987 -39.8926 -0.674123 -144.388 67.3361 125.844 -2.39345 -41.5694 -6.22357 -11.5974 13.3443 16.2079 0.801613 -10.1701 12.8571 5.16683e-16 -6.50561e-16 -2.10666e-16 -9.50369 -4.32711 2.09145 7.63207 7.85634 27.6843 0.876987 -39.8926 -0.674123 7.89445 27.54 -1.44574 2.39345 -41.5694 -6.22357 -11.0465 -18.42 -17.0622 -0.801613 -10.1701 12.8571 -6.16262e-16 -3.85187e-16 -1.25788e-14 
154.722 91.6062 1058.95 16.9363 1.41461 75.8136 0 5.22546 -1.18466 -1.3937 7.14813 4.44628 0 5.77894 1.10239 -1.94669 5.71351 4.53179 -1.0557e-17 6.16289 0.118334 -2.12041 4.5211 4.53798 -1.13649e-17 6.69386 -0.456341 -2.01985 1.36793 4.45693 -2.02997e-17 7.82529 -1.54945 -1.11653 -0.103076 4.89892 -2.60628e-17 9.77186 -0.940923 0.381829 -1.70799 4.37611 -2.98794e-17 10.8563 1.62248 0.097091 1.28674 -0.531187 -1.32927e-17 4.92478 0.736013 -1.81784 -0.495937 -6.35047 -1.86396e-17 4.96043 0.433981 -1.03458 -3.37506 -3.27617 -2.06766e-17 4.97002 0.787173 1.03699 -4.48245 0.565358 1.26863 -7.82717 7.75148 17.5371 8.11317 -1.3629 13.3291 3.34342 -3.36319 -86.981 10.3751 27.4197 30.0522 0.0615366 0.141 0.867129 -0.0271707 -4.18307 24.9344 0.0510561 0.116988 1.32942 2.93289 -1.56261 -1.26863 -7.82715 7.75138 -18.1893 0.605146 -6.66511 -13.3291 3.34342 -3.36319 56.5327 34.165 45.4281 -30.0522 0.0615366 0.141 -11.8576 -13.9809 100.069 -24.9344 0.0510559 0.116988 7.10188 -43.6105 10.142 9.50369 -4.32711 2.09145 -5.59254 -45.2952 5.85952 -0.876987 -39.8926 -0.674123 -148.195 65.3391 129.289 -2.39345 -41.5694 -6.22357 -9.60118 12.2473 15.8512 0.801613 -10.1701 12.8571 5.13456e-16 -6.507e-16 -2.10565e-16 -9.50369 -4.32711 2.09145 2.4848 14.705 27.6399 0.876987 -39.8926 -0.674123 6.48239 23.1415 -0.918165 2.39345 -41.5694 -6.22357 -5.68582 -13.2435 -16.359 -0.801613 -10.1701 12.8571 -1.38881e-15 -3.51809e-16 -1.25425e-14 
157.325 93.9757 1060.78 20.587 2.13758 72.6416 0 5.22546 -1.18466 -2.21658 7.65757 4.91787 0 5.77894 1.10239 -2.67711 6.25575 4.85519 -1.0557e-17 6.16289 0.118334 -2.69647 5.15283 4.86635 -1.13649e-17 6.69386 -0.456341 -2.42711 1.96261 4.78486 -2.02997e-17 7.82529 -1.54945 -1.25821 0.34243 5.35975 -2.60628e-17 9.77186 -0.940923 0.552136 -1.27992 4.78885 -2.98794e-17 10.8563 1.62248 0.140527 1.2365 -0.562487 -1.32927e-17 4.92478 0.736013 -1.45419 0.580239 -5.64035 -1.86396e-17 4.96043 0.433981 -0.154775 -2.69374 -2.93706 -2.06766e-17 4.97002 0.787173 1.27308 -3.40233 1.21266 1.26863 -7.82717 7.75148 18.1207 8.25952 -1.80421 13.3291 3.34342 -3.36319 -90.026 13.6731 30.2414 30.0522 0.0615366 0.141 0.904209 -0.0297469 -4.36224 24.9344 0.0510561 0.116988 -0.483453 -2.17986 -0.629221 -1.26863 -7.82715 7.75138 -19.2725 0.180539 -6.35903 -13.3291 3.34342 -3.36319 57.714 32.8614 48.5164 -30.0522 0.0615366 0.141 -11.8442 -14.0549 100.435 -24.9344 0.0510559 0.116988 10.5853 -43.6169 12.3542 9.50369 -4.32711 2.09145 1.79939 -47.202 12.5873 -0.876987 -39.8926 -0.674123 -150.497 63.9133 131.34 -2.39345 -41.5694 -6.22357 -6.72325 9.43923 15.5409 0.801613 -10.1701 12.8571 -2.75228e-16 -6.84775e-16 -1.73596e-16 -9.50369 -4.32711 2.09145 -1.30686 20.0906 28.8284 0.876987 -39.8926 -0.674123 5.8554 21.0914 -0.717999 2.39345 -41.5694 -6.22357 -1.73528 -7.63142 -16.0862 -0.801613 -10.1701 12.8571 -2.12237e-16 -4.02642e-16 -1.25915e-14 
160.427 96.3491 1060.46 22.0616 1.92166 70.1756 0 5.22546 -1.18466 -2.58265 7.33574 5.21225 0 5.77894 1.10239 -2.97123 6.229 5.03744 -1.0557e-17 6.16289 0.118334 -2.90763 5.36651 5.03568 -1.13649e-17 6.69386 -0.456341 -2.57437 2.55472 4.95656 -2.02997e-17 7.82529 -1.54945 -1.29239 1.05624 5.57784 -2.60628e-17 9.77186 -0.940923 0.644205 -0.379188 5.00219 -2.98794e-17 10.8563 1.62248 0.159758 1.10454 -0.589288 -1.32927e-17 4.92478 0.736013 -1.15042 0.91645 -4.45192 -1.86396e-17 4.96043 0.433981 0.380518 -2.83972 -2.37014 -2.06766e-17 4.97002 0.787173 1.04352 -2.88678 1.2917 1.26863 -7.82717 7.75148 17.6689 8.15741 -1.70194 13.3291 3.34342 -3.36319 -93.5673 16.2984 33.218 30.0522 0.0615366 0.141 1.03713 -0.0399412 -5.00482 24.9344 0.0510561 0.116988 -1.90759 -7.66327 0.00208394 -1.26863 -7.82715 7.75138 -19.7072 -0.372346 -6.15998 -13.3291 3.34342 -3.36319 57.5431 32.3377 51.8469 -30.0522 0.0615366 0.141 -11.8253 -14.1546 100.928 -24.9344 0.0510559 0.116988 13.4242 -43.1649 14.354 9.50369 -4.32711 2.09145 9.23197 -51.1042 17.6496 -0.876987 -39.8926 -0.674123 -152.246 62.6981 132.878 -2.39345 -41.5694 -6.22357 -3.78053 4.71562 15.3402 0.801613 -10.1701 12.8571 5.07001e-16 -6.50979e-16 -2.10263e-16 -9.50369 -4.32711 2.09145 -2.48824 22.0721 29.797 0.876987 -39.8926 -0.674123 6.18094 22.163 -0.819214 2.39345 -41.5694 -6.22357 -1.32249 -9.24672 -16.1884 -0.801613 -10.1701 12.8571 -5.96896e-16 -3.86023e-16 -1.25796e-14 
164.657 98.5599 1059.52 21.9971 1.93059 71.2012 0 5.22546 -1.18466 -2.33975 6.77969 5.20691 0 5.77894 1.10239 -2.72202 5.93137 5.01089 -1.0557e-17 6.16289 0.118334 -2.69227 5.26474 4.98425 -1.13649e-17 6.69386 -0.456341 -2.42714 2.92179 4.8991 -2.02997e-17 7.82529 -1.54945 -1.23346 1.63791 5.4613 -2.60628e-17 9.77186 -0.940923 0.579833 0.523603 4.92412 -2.98794e-17 10.8563 1.62248 0.157087 0.966216 -0.594125 -1.32927e-17 4.92478 0.736013 -1.0877 0.727663 -4.77065 -1.86396e-17 4.96043 0.433981 0.0802791 -3.76919 -2.52082 -2.06766e-17 4.97002 0.787173 0.879553 -2.44902 0.959223 1.26863 -7.82717 7.75148 15.7049 8.01766 -1.46932 13.3291 3.34342 -3.36319 -96.7057 19.3757 36.0792 30.0522 0.0615366 0.141 1.17115 -0.0517393 -5.65328 24.9344 0.0510561 0.116988 -2.41347 -12.9639 1.06392 -1.26863 -7.82715 7.75138 -19.3358 -0.975264 -5.80384 -13.3291 3.34342 -3.36319 55.8556 32.6736 54.5573 -30.0522 0.0615366 0.141 -11.782 -14.3673 101.983 -24.9344 0.0510559 0.116988 11.8836 -41.3058 12.513 9.50369 -4.32711 2.09145 11.1199 -57.4341 16.2858 -0.876987 -39.8926 -0.674123 -152.691 62.3685 133.267 -2.39345 -41.5694 -6.22357 -1.28942 -0.963513 15.3002 0.801613 -10.1701 12.8571 -6.6957e-16 -7.01813e-16 -1.61273e-16 -9.50369 -4.32711 2.09145 -2.06351 21.5443 27.0739 0.876987 -39.8926 -0.674123 7.13549 25.2146 -1.14933 2.39345 -41.5694 -6.22357 -2.54715 -13.8624 -16.4827 -0.801613 -10.1701 12.8571 -1.38881e-15 -3.51809e-16 -1.25425e-14 
